<svg width="9" height="15" xmlns="http://www.w3.org/2000/svg" xmlns:xlink="http://www.w3.org/1999/xlink"><defs><path d="M3.09 4.962c0-.684.63-1.125 1.607-1.125.783 0 1.585.359 2.24.83a.352.352 0 00.515-.118l.69-1.276a.351.351 0 00-.076-.43c-.71-.63-1.732-.999-2.674-1.107V.352A.352.352 0 005.04 0H3.868a.352.352 0 00-.351.352v1.46C1.799 2.2.667 3.45.667 4.993c0 3.62 5.412 3.247 5.412 4.964 0 .58-.477 1.205-1.527 1.205-.9 0-1.843-.465-2.573-1.051a.352.352 0 00-.503.063l-.89 1.191a.352.352 0 00.038.464c.704.675 1.736 1.209 2.893 1.406v1.412c0 .195.157.352.351.352H5.04a.352.352 0 00.352-.352v-1.39c1.925-.299 3.11-1.733 3.11-3.413 0-3.506-5.412-3.038-5.412-4.883z" id="a"/></defs><g fill="none" fill-rule="evenodd"><mask id="b" fill="#fff"><use xlink:href="#a"/></mask><use fill="#000" fill-rule="nonzero" xlink:href="#a"/><g mask="url(#b)" fill="#000"><path d="M-3 0h15v15H-3z"/></g></g></svg>