<svg width="15" height="13" xmlns="http://www.w3.org/2000/svg" xmlns:xlink="http://www.w3.org/1999/xlink"><defs><path d="M0 4.923v-.47c0-.388.315-.702.703-.702H11.25V2.344a.704.704 0 011.2-.497l2.344 2.344a.703.703 0 010 .994L12.45 7.53c-.44.44-1.2.132-1.2-.497V5.626H.703A.703.703 0 010 4.923zm14.297 4.453H3.75V7.969a.704.704 0 00-1.2-.497L.206 9.816a.703.703 0 000 .994l2.344 2.344c.44.44 1.2.131 1.2-.497v-1.406h10.547a.703.703 0 00.703-.703v-.47a.703.703 0 00-.703-.702z" id="a"/></defs><g transform="translate(0 -1)" fill="none" fill-rule="evenodd"><mask id="b" fill="#fff"><use xlink:href="#a"/></mask><use fill="#000" fill-rule="nonzero" xlink:href="#a"/><g mask="url(#b)" fill="#000"><path d="M0 0h15v15H0z"/></g></g></svg>