<svg width="15" height="11" xmlns="http://www.w3.org/2000/svg" xmlns:xlink="http://www.w3.org/1999/xlink"><defs><path d="M14.834 9.576l-2.385 2.386a.568.568 0 01-.804 0L9.261 9.576a.57.57 0 010-.804l.256-.257a.568.568 0 01.815.012l.957 1.014V5.225H6.848a.568.568 0 01-.402-.167l-.38-.379a.569.569 0 01.403-.971h5.768a.57.57 0 01.568.569V9.54l.957-1.014a.568.568 0 01.815-.012l.257.257a.57.57 0 010 .804zm-6.28.366a.568.568 0 00-.402-.167H3.711V5.46l.957 1.014c.22.233.589.238.815.012l.256-.257a.57.57 0 000-.804L3.355 3.038a.568.568 0 00-.804 0L.166 5.424a.57.57 0 000 .804l.257.257a.568.568 0 00.815-.012l.957-1.014v5.264a.57.57 0 00.568.569h5.768c.507 0 .76-.613.402-.971l-.379-.38z" id="a"/></defs><g transform="translate(0 -2)" fill="none" fill-rule="evenodd"><mask id="b" fill="#fff"><use xlink:href="#a"/></mask><use fill="#000" fill-rule="nonzero" xlink:href="#a"/><g mask="url(#b)" fill="#000"><path d="M0 0h15v15H0z"/></g></g></svg>