<svg width="15" height="15" xmlns="http://www.w3.org/2000/svg" xmlns:xlink="http://www.w3.org/1999/xlink"><defs><path d="M7.5.234a7.266 7.266 0 100 14.532A7.266 7.266 0 007.5.234zm0 1.407c3.238 0 5.86 2.62 5.86 5.859a5.857 5.857 0 01-5.86 5.86A5.856 5.856 0 011.64 7.5 5.857 5.857 0 017.5 1.64zm4.108 3.816l-.66-.666a.352.352 0 00-.498-.002L6.31 8.897 4.557 7.131a.352.352 0 00-.497-.002l-.666.66a.352.352 0 00-.002.498l2.66 2.681c.137.138.36.139.497.002l5.057-5.016a.352.352 0 00.002-.497z" id="a"/></defs><g fill="none" fill-rule="evenodd"><mask id="b" fill="#fff"><use xlink:href="#a"/></mask><use fill="#000" fill-rule="nonzero" xlink:href="#a"/><g mask="url(#b)" fill="#FFF"><path d="M0 0h15v15H0z"/></g></g></svg>